<?xml version="1.0" encoding="UTF-8" standalone="no"?>
<svg width="100px" height="100px" viewBox="0 0 100 100" version="1.1" xmlns="http://www.w3.org/2000/svg" xmlns:xlink="http://www.w3.org/1999/xlink" xmlns:sketch="http://www.bohemiancoding.com/sketch/ns">
    <!-- Generator: Sketch 3.0.3 (7892) - http://www.bohemiancoding.com/sketch -->
    <title>icon_recording</title>
    <desc>Created with Sketch.</desc>
    <defs></defs>
    <g id="Icons" stroke="none" stroke-width="1" fill-rule="evenodd" sketch:type="MSPage">
        <g id="icon_recording" sketch:type="MSArtboardGroup">
            <g sketch:type="MSLayerGroup" transform="translate(25.224577, 8.919346)" id="Shape">
                <path d="M24.6963352,53.9539834 L24.3663414,53.9539834 C17.436472,53.9539834 11.6615808,48.3440891 11.6615808,41.2492228 L11.6615808,12.7047606 C11.6615808,5.77489119 17.2714751,-1.0658141e-14 24.3663414,-1.0658141e-14 L24.6963352,-1.0658141e-14 C31.6262046,-1.0658141e-14 37.4010958,5.6098943 37.4010958,12.7047606 L37.4010958,41.4142197 C37.2360989,48.3440891 31.6262046,53.9539834 24.6963352,53.9539834 L24.6963352,53.9539834 Z" sketch:type="MSShapeGroup"></path>
                <path d="M25.5745181,65.0061909 L25.5745181,65.0061909 L23.5945554,65.0061909 L23.5945554,65.0061909 C16.0046984,65.0061909 1.31997513,60.2212811 5.32907052e-14,41.7416293 L5.32907052e-14,36.7917225 C5.32907052e-14,35.4717474 1.15497824,34.3167692 2.47495337,34.3167692 L3.29993782,34.3167692 C4.61991295,34.3167692 5.77489119,35.4717474 5.77489119,36.7917225 L5.77489119,41.4116355 C6.92986943,58.901306 23.0995648,59.2312997 23.7595523,59.2312997 L25.5745181,59.2312997 C26.2345057,59.2312997 42.404201,58.901306 43.5591793,41.2466386 L43.5591793,36.6267257 C43.5591793,35.3067505 44.7141575,34.1517723 46.0341326,34.1517723 L46.8591171,34.1517723 C48.1790922,34.1517723 49.3340705,35.3067505 49.3340705,36.6267257 L49.3340705,41.4116355 C47.8490984,60.2212811 33.1643751,65.0061909 25.5745181,65.0061909 L25.5745181,65.0061909 Z" sketch:type="MSShapeGroup"></path>
                <path d="M10.8286107,81.8492609 L24.5233527,69.9694847 L38.2180947,81.8492609 L10.8286107,81.8492609 Z" sketch:type="MSShapeGroup"></path>
            </g>
        </g>
    </g>
</svg>