<?xml version="1.0" encoding="UTF-8" standalone="no"?>
<svg width="138px" height="138px" viewBox="0 0 138 138" version="1.1" xmlns="http://www.w3.org/2000/svg" xmlns:xlink="http://www.w3.org/1999/xlink" xmlns:sketch="http://www.bohemiancoding.com/sketch/ns">
    <!-- Generator: Sketch 3.4.4 (17248) - http://www.bohemiancoding.com/sketch -->
    <title>Artboard 1</title>
    <desc>Created with Sketch.</desc>
    <defs></defs>
    <g id="Page-1" stroke="none" stroke-width="1" fill="none" fill-rule="evenodd" sketch:type="MSPage">
        <g id="Artboard-1" sketch:type="MSArtboardGroup" stroke-linecap="round" stroke="#000000" stroke-width="6" stroke-linejoin="round">
            <g id="lifebuoy" sketch:type="MSLayerGroup">
                <path d="M81.798,4.242 C107.79,9.339 128.31,29.706 133.641,55.617" id="Stroke-1" sketch:type="MSShapeGroup"></path>
                <path d="M4.065,57.117 C8.976,30.117 30.306,8.847 57.315,4.032" id="Stroke-2" sketch:type="MSShapeGroup"></path>
                <path d="M57.21,133.944 C30.435,129.117 9.27,108.141 4.173,81.444" id="Stroke-3" sketch:type="MSShapeGroup"></path>
                <path d="M133.968,80.661 C129.153,107.694 107.883,129.036 80.883,133.935" id="Stroke-4" sketch:type="MSShapeGroup"></path>
                <path d="M80.883,35.004 C90.96,38.532 99,46.407 102.726,56.391" id="Stroke-5" sketch:type="MSShapeGroup"></path>
                <path d="M35.31,56.31 C39.048,46.383 47.04,38.544 57.069,35.028" id="Stroke-6" sketch:type="MSShapeGroup"></path>
                <path d="M57.246,103.044 C46.758,99.423 38.46,91.089 34.899,80.577" id="Stroke-7" sketch:type="MSShapeGroup"></path>
                <path d="M102.621,81.891 C98.835,91.734 90.867,99.504 80.883,102.996" id="Stroke-8" sketch:type="MSShapeGroup"></path>
                <path d="M81,36 C81,37.653 79.665,39 78,39 C78,39 75,37.758 69,37.758 C63,37.758 60,39 60,39 C58.335,39 57,37.653 57,36 L57,3 C57,1.347 63,0 69,0 C75,0 81,1.347 81,3 L81,36 Z" id="Stroke-9" sketch:type="MSShapeGroup"></path>
                <path d="M57,102 C57,100.335 58.335,99 60,99 C60,99 63,100.242 69,100.242 C75,100.242 78,99 78,99 C79.665,99 81,100.335 81,102 L81,135 C81,136.665 75,138 69,138 C63,138 57,136.665 57,135 L57,102 Z" id="Stroke-10" sketch:type="MSShapeGroup"></path>
                <path d="M102,81 C100.335,81 99,79.665 99,78 C99,78 100.242,75 100.242,69 C100.242,63 99,60 99,60 C99,58.335 100.335,57 102,57 L135,57 C136.665,57 138,63 138,69 C138,75 136.665,81 135,81 L102,81 Z" id="Stroke-11" sketch:type="MSShapeGroup"></path>
                <path d="M36,57 C37.665,57 39,58.335 39,60 C39,60 37.758,63 37.758,69 C37.758,75 39,78 39,78 C39,79.665 37.665,81 36,81 L3,81 C1.335,81 0,75 0,69 C0,63 1.335,57 3,57 L36,57 Z" id="Stroke-12" sketch:type="MSShapeGroup"></path>
                <path d="M90,6 C90,6 110.448,-3.552 126,12 C141.552,27.552 132,48 132,48" id="Stroke-13" sketch:type="MSShapeGroup"></path>
                <path d="M132,90 C132,90 141.552,110.448 126,126 C110.448,141.552 90,132 90,132" id="Stroke-14" sketch:type="MSShapeGroup"></path>
                <path d="M48,132 C48,132 27.552,141.552 12,126 C-3.552,110.448 6,90 6,90" id="Stroke-15" sketch:type="MSShapeGroup"></path>
                <path d="M6,48 C6,48 -3.552,27.552 12,12 C27.552,-3.552 48,6 48,6" id="Stroke-16" sketch:type="MSShapeGroup"></path>
            </g>
        </g>
    </g>
</svg>